# xmcd
#
# Track frame offsets: 
#        150
#        22505
#        44008
#        67909
#        89976
#        105676
#        124893
#        155381
#        171466
#        197268
#        226788
#
# Disc length: 3399 seconds
#
# Revision: 3
# Processed by: cddbd v1.5.2PL0 Copyright (c) Steve Scherf et al.
# Submitted via: ExactAudioCopy v1.1
#
DISCID=890d450b
DTITLE=Tab Benoit - Night Train To Nashville
DYEAR=2008
DGENRE=Blues
TTITLE0=Night Train
TTITLE1=Solid Simple Thing 
TTITLE2=Darkness 
TTITLE3=Too Sweet For Me 
TTITLE4=Moon Comin' Over The Hill 
TTITLE5=Lost In Your Lovin'
TTITLE6=Rendezvous With The Blues
TTITLE7=Fever For The Bayou 
TTITLE8=New Orleans Ladies
TTITLE9=Muddy Bottom Blues
TTITLE10=Stackolina 
EXTD=
EXTT0=
EXTT1=
EXTT2=
EXTT3=
EXTT4=
EXTT5=
EXTT6=
EXTT7=
EXTT8=
EXTT9=
EXTT10=
PLAYORDER=
